1.9Hzlow3min_grf.mot
version=1
nRows=22
nColumns 19
inDegrees=yes
endheader
time	1_ground_force_vx	1_ground_force_vy	1_ground_force_vz	1_ground_force_px	1_ground_force_py	1_ground_force_pz	1_ground_torque_x	1_ground_torque_y	1_ground_torque_z	2_ground_force_vx	2_ground_force_vy	2_ground_force_vz	2_ground_force_px	2_ground_force_py	2_ground_force_pz	2_ground_torque_x	2_ground_torque_y	2_ground_torque_z
            1.253500	          -11.811431	           72.132698	           -6.356538	           -0.246310	            0.006078	           -0.372009	            0.034399	           -0.210076	            0.018513	            2.387788	           92.418629	            9.761237	           -0.238402	            0.005590	           -0.688503	            0.005648	            0.218586	            0.023087
            1.254000	          -11.492013	           73.396782	           -6.856338	           -0.247062	            0.006078	           -0.372162	            0.047136	           -0.301044	            0.028122	            2.949425	           92.603978	            9.996295	           -0.238620	            0.005590	           -0.688568	            0.007568	            0.237613	            0.025650
            1.254500	          -11.309977	           74.480378	           -7.310715	           -0.247014	            0.006078	           -0.372024	            0.044123	           -0.290563	            0.028521	            3.232018	           92.235357	           10.370286	           -0.238886	            0.005581	           -0.686342	            0.009091	            0.259443	            0.029170
            1.255000	          -10.852493	           75.923771	           -7.580804	           -0.247456	            0.006073	           -0.371026	            0.037886	           -0.265052	            0.026465	            3.885923	           92.790163	           10.371979	           -0.240061	            0.005578	           -0.686796	            0.010760	            0.256924	            0.028719
            1.255500	          -10.485734	           76.464443	           -7.533540	           -0.247357	            0.006085	           -0.373695	            0.032004	           -0.233383	            0.022994	            4.586533	           93.346324	           10.045154	           -0.239804	            0.005583	           -0.688046	            0.012748	            0.259460	            0.027921
            1.256000	          -10.027406	           78.266795	           -7.435236	           -0.250546	            0.006082	           -0.373179	            0.022808	           -0.178022	            0.016912	            5.381755	           93.716660	           10.280770	           -0.240129	            0.005581	           -0.687624	            0.012158	            0.211709	            0.023225
            1.256500	           -8.836027	           79.349209	           -7.571124	           -0.249178	            0.006088	           -0.374548	            0.017749	           -0.159387	            0.015208	            5.991427	           93.535038	           10.185998	           -0.240547	            0.005579	           -0.687521	            0.013661	            0.213262	            0.023224
            1.257000	           -8.011833	           80.972939	           -7.841351	           -0.248989	            0.006081	           -0.372921	            0.023655	           -0.239072	            0.023152	            6.458741	           93.903854	           10.515609	           -0.240771	            0.005579	           -0.687851	            0.017570	            0.255457	            0.028607
            1.257500	           -7.416152	           81.874579	           -7.884821	           -0.249307	            0.006085	           -0.373864	            0.029857	           -0.329617	            0.031743	            6.834307	           93.720230	           10.749433	           -0.240339	            0.005575	           -0.686187	            0.015335	            0.210289	            0.024120
            1.258000	           -6.775426	           82.777604	           -8.249397	           -0.249913	            0.006085	           -0.373957	            0.024420	           -0.298351	            0.029733	            7.019754	           94.273009	           10.845181	           -0.240767	            0.005574	           -0.686398	            0.020363	            0.273465	            0.031459
            1.258500	           -6.363768	           83.500123	           -8.568320	           -0.250543	            0.006088	           -0.374636	            0.026948	           -0.353594	            0.036284	            7.391333	           95.194275	           11.082947	           -0.240538	            0.005579	           -0.687582	            0.024300	            0.312963	            0.036437
            1.259000	           -5.630265	           84.040865	           -8.521966	           -0.249528	            0.006097	           -0.376618	            0.019211	           -0.286754	            0.029078	            7.947591	           96.853297	           11.182478	           -0.240983	            0.005581	           -0.688511	            0.026096	            0.318023	            0.036718
            1.259500	           -4.576418	           86.384719	           -8.560390	           -0.249141	            0.006080	           -0.372550	            0.012455	           -0.235098	            0.023297	            8.554646	           97.407949	           11.184190	           -0.240753	            0.005576	           -0.686988	            0.029156	            0.331987	            0.038118
            1.260000	           -4.072196	           87.285948	           -8.511921	           -0.250763	            0.006085	           -0.373866	            0.014715	           -0.315401	            0.030757	            8.742148	           97.407789	           11.418751	           -0.241494	            0.005568	           -0.685279	            0.026714	            0.297657	            0.034893
            1.260500	           -2.835283	           88.188695	           -8.786264	           -0.249426	            0.006091	           -0.375160	            0.012009	           -0.373537	            0.037216	            9.107622	           99.987386	           11.380862	           -0.241629	            0.005573	           -0.686841	            0.027604	            0.303048	            0.034494
            1.261000	           -1.644213	           89.091434	           -9.060492	           -0.250784	            0.006089	           -0.374767	            0.006479	           -0.351085	            0.035705	            9.384796	          101.092789	           11.525469	           -0.241197	            0.005578	           -0.687847	            0.031680	            0.341260	            0.038907
            1.261500	           -0.911052	           89.632765	           -9.151706	           -0.251565	            0.006091	           -0.375378	            0.003341	           -0.328682	            0.033559	            9.569016	          102.013028	           11.857172	           -0.242199	            0.005572	           -0.687162	            0.029226	            0.311576	            0.036215
            1.262000	            0.005006	           92.157252	           -9.280728	           -0.250606	            0.006079	           -0.372590	           -0.000017	           -0.308330	            0.031050	            9.653720	          104.588932	           12.570252	           -0.241321	            0.005576	           -0.687482	            0.035109	            0.380367	            0.045715
            1.262500	            0.783851	           91.076988	           -9.562435	           -0.250525	            0.006097	           -0.376607	           -0.001564	           -0.181750	            0.019082	            9.928899	          106.246788	           12.716831	           -0.241362	            0.005573	           -0.686747	            0.036131	            0.386634	            0.046277
            1.263000	            1.562807	           91.257994	           -9.701164	           -0.251879	            0.006094	           -0.376049	           -0.004555	           -0.265994	            0.028276	           10.158558	          107.536162	           12.862115	           -0.241542	            0.005573	           -0.686808	            0.031215	            0.330435	            0.039522
            1.263500	            2.250662	           91.978600	           -9.562211	           -0.252246	            0.006096	           -0.376490	           -0.006909	           -0.282337	            0.029352	           10.571670	          109.930783	           13.105118	           -0.241481	            0.005569	           -0.685754	            0.029121	            0.302823	            0.036100
            1.264000	            3.212808	           93.781836	           -9.648583	           -0.251360	            0.006092	           -0.375468	           -0.013310	           -0.388506	            0.039971	           10.658847	          111.771601	           13.393217	           -0.241800	            0.005570	           -0.686207	            0.025587	            0.268311	            0.032151
